<svg width="76" height="56" viewBox="0 0 76 56" fill="none" xmlns="http://www.w3.org/2000/svg">
<g id="Group 153328">
<path id="Vector" fill-rule="evenodd" clip-rule="evenodd" d="M25.4118 6.3818C25.3321 6.5637 25.4118 6.7797 25.4687 6.93886C25.537 7.13212 25.6281 7.38222 25.6963 7.62096C25.8329 8.03023 25.9923 8.4736 26.1288 8.9056L28.7466 16.7385H47.6172C47.7538 16.0223 48.2205 14.874 48.4595 14.1465L50.8724 7.0298C51.0886 6.41591 51.0431 6.47275 50.9293 6.3818C50.6106 6.13169 50.1781 7.09801 49.609 7.80286C48.357 9.3717 46.3425 11.3498 43.941 10.9633C42.3134 10.7018 41.2322 9.49676 40.5151 8.5077C39.229 6.75696 39.138 5.54054 38.5803 4.57422H37.738C37.1234 7.30265 34.0732 12.6344 29.8848 10.5313C28.28 9.72413 27.1077 8.43949 26.1516 6.97296C25.6053 6.14306 25.8102 6.23401 25.4118 6.3818Z" fill="#FE9B0E"/>
<path id="Vector_2" fill-rule="evenodd" clip-rule="evenodd" d="M31.2167 5.31248C31.0915 7.27922 30.8069 8.21143 30.4086 9.92807C32.2979 10.8262 34.2897 9.64386 34.7791 8.58659C34.3124 8.30238 33.6068 7.52933 33.1971 7.02912C32.7076 6.42659 32.2979 5.76722 31.8085 5.15332L31.228 5.30111L31.2167 5.31248Z" fill="#FE9B0E"/>
<path id="Vector_3" fill-rule="evenodd" clip-rule="evenodd" d="M41.6758 8.70063C42.3473 9.54189 44.305 11.0198 46.0463 9.90568C45.5455 8.43915 45.3634 7.00673 45.2382 5.33557L44.5667 5.16504C44.305 5.7903 43.6334 6.56336 43.2351 7.07494L41.6872 8.70063H41.6758Z" fill="#FE9B0E"/>
<path id="Vector_4" fill-rule="evenodd" clip-rule="evenodd" d="M37.7042 0.912704C35.4734 1.64029 36.6116 4.82345 38.7627 4.14134C40.7772 3.50471 39.8781 0.20786 37.7042 0.912704Z" fill="#FE9B0E"/>
<path id="Vector_5" fill-rule="evenodd" clip-rule="evenodd" d="M51.1683 3.73212C49.5294 4.20959 50.2578 6.47192 51.8057 6.03992C53.2398 5.64202 52.6934 3.28875 51.1683 3.73212Z" fill="#FE9B0E"/>
<path id="Vector_6" fill-rule="evenodd" clip-rule="evenodd" d="M24.6382 3.75493C23.0334 4.24378 23.796 6.55157 25.3553 6.03999C26.6755 5.60799 26.1633 3.28883 24.6382 3.75493Z" fill="#FE9B0E"/>
<path id="Vector_7" fill-rule="evenodd" clip-rule="evenodd" d="M30.8753 3.11923C29.7371 3.51712 30.329 5.31334 31.5468 4.83586C32.5711 4.4266 32.15 2.67586 30.8753 3.11923Z" fill="#FE9B0E"/>
<path id="Vector_8" fill-rule="evenodd" clip-rule="evenodd" d="M44.8629 3.12911C43.7361 3.58385 44.3279 5.27775 45.5344 4.84575C46.5815 4.47059 46.0466 2.65164 44.8629 3.12911Z" fill="#FE9B0E"/>
<path id="Vector_9" fill-rule="evenodd" clip-rule="evenodd" d="M9.50027 23.2289C30.9887 16.6352 43.6677 15.0891 66.4878 23.5017C45.7164 12.8722 32.7528 12.5653 9.50027 23.2289Z" fill="#FE9B0E"/>
<path id="Vector_10" fill-rule="evenodd" clip-rule="evenodd" d="M72.2812 48.0917C73.2372 48.0917 73.8632 48.1486 74.2843 48.1713C74.9103 48.2395 75.0583 48.4896 75.0924 48.842C75.0924 48.9103 75.1038 48.9785 75.1038 49.1149C75.1152 49.2513 75.1721 49.3195 75.2404 49.3195C75.3087 49.3195 75.3769 49.2627 75.3883 49.0808C75.3883 48.7966 75.4794 47.6142 75.4794 47.4778C75.4794 47.1481 75.4908 47.0799 75.3656 47.0799C75.2973 47.0799 75.2062 47.1027 74.9786 47.1481C74.8193 47.1709 74.6144 47.205 74.2729 47.205H68.9805C68.5366 47.205 67.8082 47.1481 67.6375 47.114C67.4554 47.0913 67.353 47.0345 67.296 47.0345C67.2278 47.0345 67.1708 47.114 67.1367 47.2846C67.0456 47.8075 66.9432 48.41 66.8749 48.9671C66.8635 49.1035 66.8863 49.2058 66.9774 49.2058C67.057 49.2058 67.1026 49.1149 67.1253 49.0353C67.1595 48.9557 67.1936 48.8648 67.2164 48.7852C67.353 48.3191 67.5806 48.1599 68.2293 48.1258C68.8098 48.0803 69.5724 48.1031 70.0276 48.1031V52.5027C70.0276 53.6282 70.0276 54.4353 69.9707 54.9242C69.9366 55.2538 69.8569 55.4812 69.5837 55.5381C69.4358 55.5608 69.322 55.5608 69.1968 55.5722C69.0602 55.5835 68.9577 55.629 68.9577 55.7086C68.9577 55.7995 69.0374 55.8336 69.2423 55.8336C69.5951 55.8336 70.8699 55.7882 71.0406 55.7882C71.2113 55.7882 72.4519 55.8336 73.2714 55.8336C73.4876 55.8336 73.5559 55.7882 73.5559 55.7313C73.5559 55.6517 73.499 55.6063 73.2941 55.5722C73.1006 55.5608 72.9641 55.5494 72.8161 55.5153C72.4633 55.4585 72.3608 55.1629 72.3381 54.8787C72.2925 54.3898 72.2812 53.378 72.2812 52.5027V48.1031V48.0917ZM55.6527 52.4913C55.6527 53.1279 55.6413 53.7646 55.6413 54.1966C55.5958 55.0037 55.5616 55.4471 55.1747 55.5153C55.0495 55.5381 54.9584 55.5381 54.8332 55.5494C54.6284 55.5494 54.5942 55.6176 54.5942 55.6631C54.5942 55.7427 54.6511 55.8109 54.8787 55.8109C55.5503 55.8109 56.1193 55.7654 56.677 55.7654C57.929 55.7654 58.7826 55.8336 60.5581 55.8336C61.002 55.8336 61.0931 55.8223 61.1841 55.5267C61.241 55.2993 61.3549 54.3785 61.3549 53.8783C61.3549 53.7305 61.3435 53.6395 61.2524 53.6395C61.1728 53.6395 61.1158 53.7077 61.0931 53.8442C60.9907 54.3785 60.8541 54.6513 60.524 54.7764C60.1939 54.9014 59.7273 54.9128 59.42 54.9128C58.077 54.9128 57.929 54.7309 57.9176 53.9237C57.9062 53.4576 57.9176 52.9119 57.9176 52.5368V51.7069C57.9176 51.6387 57.929 51.6159 57.9973 51.6159C58.3615 51.6159 59.272 51.6273 59.6362 51.65C60.2622 51.6955 60.3874 51.9001 60.4557 52.2639C60.4671 52.3435 60.4671 52.4231 60.4785 52.4913C60.4899 52.6277 60.5468 52.6732 60.6151 52.6732C60.6947 52.6732 60.7289 52.6277 60.7289 52.4686C60.7289 52.3435 60.7403 51.7296 60.7516 51.4795C60.763 51.0589 60.8427 50.5587 60.8427 50.4223C60.8427 50.354 60.8313 50.2745 60.7516 50.2745C60.6947 50.2745 60.6492 50.3199 60.5923 50.4223C60.4557 50.6496 60.2964 50.6837 59.6362 50.7178C59.1696 50.7292 58.3501 50.7292 57.9973 50.7292C57.9176 50.7292 57.9062 50.7065 57.9062 50.6269V48.2054C57.9062 48.1258 57.929 48.0803 57.9973 48.0803C58.3615 48.0803 59.3403 48.1031 59.7728 48.1372C60.3419 48.194 60.4785 48.3532 60.5468 48.6147C60.5923 48.7852 60.5923 48.8875 60.6151 49.0467C60.6264 49.149 60.6834 49.2058 60.7516 49.2058C60.8313 49.2058 60.8882 49.1149 60.8882 49.0239C60.9224 48.3077 60.9451 48.069 60.9565 47.7848C60.9793 47.5233 61.0134 47.3755 61.0476 47.2277C61.0589 47.1595 61.0362 47.1027 60.9679 47.1027C60.9224 47.1027 60.8655 47.114 60.7858 47.1481C60.5923 47.1936 60.3419 47.205 60.1143 47.205C59.9322 47.205 56.8819 47.2164 56.677 47.2164C56.1763 47.2164 55.6186 47.1822 54.9129 47.1822C54.7308 47.1822 54.6625 47.2391 54.6625 47.2959C54.6625 47.3528 54.6853 47.4323 54.8674 47.4437C54.9926 47.4551 55.1178 47.4551 55.2202 47.4892C55.5047 47.5347 55.6185 47.7279 55.6413 48.0121C55.6641 48.3873 55.6755 48.5919 55.6755 50.4905V52.5027L55.6527 52.4913ZM42.9281 50.4791C42.9281 48.6942 42.9281 48.5237 42.9509 48.1486C42.9623 47.7961 43.0078 47.5119 43.4403 47.4664C43.5313 47.4551 43.6565 47.4437 43.7362 47.421C43.8955 47.4096 43.9524 47.3641 43.9524 47.2846C43.9524 47.205 43.9297 47.1481 43.7021 47.1481C43.2923 47.1481 41.7786 47.1822 41.7217 47.1822C41.6761 47.1822 40.3217 47.1481 39.8551 47.1481C39.6161 47.1481 39.5478 47.205 39.5478 47.2618C39.5478 47.3528 39.6502 47.3982 39.7868 47.4096C39.912 47.421 40.0258 47.4324 40.2193 47.4551C40.5607 47.5233 40.6518 47.7052 40.6632 47.978C40.6973 48.3532 40.6973 48.6715 40.6973 50.4564V52.4686C40.6973 53.594 40.6746 54.3557 40.6177 54.8332C40.5949 55.1629 40.538 55.4357 40.1282 55.4926C40.003 55.5153 39.9689 55.5153 39.8665 55.5267C39.7185 55.5381 39.6275 55.5835 39.6275 55.6631C39.6275 55.7541 39.7299 55.7882 39.8665 55.7882C40.2534 55.7882 41.6761 55.7427 41.7103 55.7427C41.7672 55.7427 43.1557 55.7882 43.9638 55.7882C44.1232 55.7882 44.1915 55.72 44.1915 55.6517C44.1915 55.5949 44.1346 55.5381 43.9866 55.5267C43.85 55.5153 43.6451 55.5153 43.4858 55.4926C43.0647 55.4357 42.9736 55.1629 42.9395 54.8673C42.894 54.3898 42.894 53.3326 42.894 52.4572V51.5023C43.7476 52.7528 44.8971 54.3444 45.5914 55.0265C46.2174 55.6176 46.7865 55.7768 48.3799 55.7768H49.5749C49.7001 55.7768 49.814 55.7541 49.814 55.6517C49.814 55.5494 49.757 55.5267 49.5749 55.5153C49.3473 55.4812 49.188 55.4471 48.9831 55.3334C48.7896 55.2311 48.5051 55.0265 47.8791 54.3785C47.0141 53.4463 45.1134 51.1839 44.6923 50.5246C44.9996 50.2062 46.2515 48.9216 46.7978 48.4214C47.3669 47.9212 47.7539 47.5574 48.3913 47.4551C48.5278 47.4324 48.6189 47.421 48.7782 47.3982C48.9148 47.3869 48.9945 47.33 48.9945 47.2618C48.9945 47.1822 48.9376 47.1481 48.7327 47.1481C48.5847 47.1481 47.697 47.1709 46.9686 47.1709C46.2401 47.1709 46.2401 47.1481 45.6938 47.1481C45.5459 47.1481 45.489 47.205 45.489 47.2618C45.489 47.3414 45.5914 47.3869 45.7166 47.3982C46.0239 47.4437 46.0467 47.5233 46.0467 47.6597C46.0467 47.8416 45.8076 48.1486 45.4548 48.5351C44.4419 49.6378 43.5882 50.4905 42.894 51.1271V50.4564L42.9281 50.4791ZM31.0344 55.9814C31.7742 55.9814 32.5937 55.9132 33.0603 55.7313C33.2424 55.6631 33.3448 55.5494 33.379 55.3448C33.47 54.7877 33.6294 53.7873 33.6294 53.5599C33.6294 53.4463 33.5838 53.3667 33.5042 53.3667C33.4131 53.3667 33.3676 53.4121 33.3221 53.6395C33.2424 53.9919 33.0831 54.3103 32.9351 54.4808C32.4685 54.9696 31.8994 55.0492 30.9661 55.0492C28.9402 55.0492 27.711 53.4235 27.711 51.1498C27.711 49.9107 28.041 48.8761 28.7467 48.3191C29.1678 47.9667 29.7596 47.8075 30.3856 47.8075C31.5352 47.8075 32.3433 48.0803 32.753 48.5237C33.1627 48.9557 33.1741 49.4332 33.1855 49.6606C33.1969 49.8197 33.2424 49.9107 33.3335 49.9107C33.4359 49.9107 33.47 49.8084 33.4928 49.6378C33.5156 49.3081 33.5383 48.6374 33.5497 48.2622C33.5725 47.8757 33.6066 47.546 33.6066 47.4551C33.6066 47.3869 33.6066 47.3073 33.47 47.2959C33.1172 47.2959 32.8782 47.2391 32.3205 47.1481C31.8766 47.0799 31.2848 47.0117 30.636 47.0117C28.9402 47.0117 27.7223 47.33 26.6752 48.1713C25.4688 49.1376 25.1842 50.5814 25.1842 51.3545C25.1842 52.5936 25.5143 53.7646 26.6866 54.7195C27.9614 55.7313 29.5092 55.9814 31.0344 55.9814ZM15.8855 52.4913C15.8855 53.6282 15.8741 54.4239 15.8058 54.9014C15.7831 55.2311 15.6806 55.4698 15.4189 55.5267C15.2595 55.5494 15.1457 55.5494 15.0433 55.5608C14.9067 55.5608 14.8384 55.629 14.8384 55.6858C14.8384 55.7768 14.9181 55.8223 15.1229 55.8223C15.4872 55.8223 16.8643 55.7768 16.8871 55.7768C16.9554 55.7768 18.3212 55.8223 19.1406 55.8223C19.3455 55.8223 19.391 55.7541 19.391 55.6972C19.391 55.629 19.3341 55.5608 19.1406 55.5608C19.0041 55.5494 18.8106 55.5494 18.6512 55.5039C18.2984 55.4244 18.2187 55.2197 18.1846 54.9355C18.1277 54.4467 18.1163 53.3667 18.1163 52.4913V50.4791C18.1163 48.6942 18.1163 48.4214 18.1618 48.0462C18.2187 47.6483 18.3212 47.5347 18.6398 47.4664C18.7764 47.4437 18.7878 47.4437 18.9016 47.421C19.0382 47.4096 19.1406 47.3869 19.1406 47.2846C19.1406 47.205 19.1179 47.1481 18.9016 47.1481C18.4464 47.1481 16.9554 47.1822 16.8871 47.1822C16.8416 47.1822 15.5782 47.1481 15.1229 47.1481C14.8953 47.1481 14.8498 47.2163 14.8498 47.2846C14.8498 47.3641 14.9181 47.4096 15.0774 47.421C15.2368 47.4324 15.362 47.4437 15.4416 47.4664C15.7262 47.5119 15.8058 47.7166 15.84 48.0235C15.8855 48.3873 15.8855 48.6829 15.8855 50.4677V52.4799V52.4913ZM5.93803 48.0917C6.89408 48.0917 7.53145 48.1486 7.95256 48.1713C8.57855 48.2395 8.72651 48.4896 8.76065 48.842C8.76065 48.9103 8.77204 48.9785 8.77204 49.1149C8.78342 49.2513 8.84032 49.3195 8.90861 49.3195C8.9769 49.3195 9.03381 49.2627 9.04519 49.0808C9.05657 48.7966 9.13625 47.6142 9.13625 47.4778C9.13625 47.1481 9.14763 47.0799 9.01105 47.0799C8.95414 47.0799 8.85171 47.1027 8.62407 47.1481C8.46473 47.1709 8.25987 47.205 7.90704 47.205H2.61461C2.17073 47.205 1.43093 47.1481 1.27159 47.114C1.08948 47.0913 0.987047 47.0345 0.918757 47.0345C0.850468 47.0345 0.793559 47.114 0.759414 47.2846C0.668361 47.8075 0.554546 48.41 0.497638 48.9671C0.486257 49.1035 0.50902 49.2058 0.600073 49.2058C0.679744 49.2058 0.725271 49.1149 0.748034 49.0353C0.79356 48.9557 0.816323 48.8648 0.839087 48.7852C0.987047 48.3191 1.21468 48.1599 1.86343 48.1258C2.44389 48.0803 3.20645 48.1031 3.66171 48.1031V52.5027C3.66171 53.6282 3.66171 54.4353 3.6048 54.9242C3.55928 55.2538 3.49099 55.4812 3.21783 55.5381C3.06987 55.5608 2.95606 55.5608 2.83086 55.5722C2.69428 55.5835 2.59185 55.629 2.59185 55.7086C2.59185 55.7995 2.67152 55.8336 2.87639 55.8336C3.22921 55.8336 4.50395 55.7882 4.67467 55.7882C4.8454 55.7882 6.09737 55.8336 6.90546 55.8336C7.12171 55.8336 7.19 55.7882 7.19 55.7313C7.19 55.6517 7.13309 55.6063 6.91684 55.5722C6.72335 55.5608 6.58678 55.5494 6.43882 55.5153C6.08599 55.4585 5.99494 55.1629 5.96079 54.8787C5.92665 54.3898 5.90388 53.378 5.90388 52.5027V48.1031L5.93803 48.0917Z" fill="#FE9B0E"/>
</g>
</svg>
